<?xml version="1.0" encoding="UTF-8" standalone="no"?>
<svg width="512px" height="512px" viewBox="0 0 512 512" version="1.1" xmlns="http://www.w3.org/2000/svg" xmlns:xlink="http://www.w3.org/1999/xlink" xmlns:sketch="http://www.bohemiancoding.com/sketch/ns">
    <!-- Generator: Sketch 3.0.4 (8053) - http://www.bohemiancoding.com/sketch -->
    <title>Logo SVG</title>
    <desc>Created with Sketch.</desc>
    <defs>
        <linearGradient x1="50%" y1="0%" x2="50%" y2="100%" id="linearGradient-1">
            <stop stop-color="#FFE31D" offset="0%"></stop>
            <stop stop-color="#FDA125" offset="100%"></stop>
        </linearGradient>
        <radialGradient cx="33.2899306%" cy="34.3424479%" fx="33.2899306%" fy="34.3424479%" r="123.729079%" id="radialGradient-2">
            <stop stop-color="#FF8686" offset="0%"></stop>
            <stop stop-color="#A40000" offset="100%"></stop>
        </radialGradient>
        <linearGradient x1="50%" y1="26.4350043%" x2="79.1856554%" y2="100%" id="linearGradient-3">
            <stop stop-color="#FFA2A2" stop-opacity="0.5" offset="0%"></stop>
            <stop stop-color="#340101" stop-opacity="0.5" offset="100%"></stop>
        </linearGradient>
        <ellipse id="path-4" cx="54.5" cy="21.5" rx="24.5" ry="21.5"></ellipse>
        <radialGradient cx="32.1437401%" cy="15.0830078%" fx="32.1437401%" fy="15.0830078%" r="90.6628234%" id="radialGradient-5">
            <stop stop-color="#F864FF" offset="0%"></stop>
            <stop stop-color="#AF0707" offset="100%"></stop>
        </radialGradient>
        <linearGradient x1="50%" y1="0%" x2="50%" y2="100%" id="linearGradient-6">
            <stop stop-color="#FFFFFF" stop-opacity="0.5" offset="0%"></stop>
            <stop stop-color="#000000" stop-opacity="0.5" offset="100%"></stop>
        </linearGradient>
        <path d="M96.9789079,17.0060831 C103.286008,18.975212 107,21.390322 107,24 C107,30.627417 83.0472341,36 53.5,36 C23.9527659,36 0,30.627417 0,24 C0,20.6928044 5.96467564,17.6980854 15.612744,15.5275326 C10.1859575,17.4730522 7,19.6715327 7,21.6666667 C7,26.8213243 28.2664744,31 54.5,31 C80.7335256,31 102,26.8213243 102,21.6666667 C102,20.1635164 100.191574,18.5449417 96.9789079,17.0060831 Z" id="path-7"></path>
    </defs>
    <g id="Layers" stroke="none" stroke-width="1" fill="none" fill-rule="evenodd" sketch:type="MSPage">
        <rect id="Rectangle-14" stroke="#979797" sketch:type="MSShapeGroup" x="0" y="0" width="512" height="512"></rect>
        <g id="FALLING-DODGE-4-+-Sky-Element-01-4" sketch:type="MSLayerGroup" transform="translate(60.000000, 111.000000)">
            <g id="FALLING-3-+-FALLING-2" transform="translate(18.000000, 24.000000)" sketch:type="MSShapeGroup">
                <path d="M15.936,99.732442 L43.2,93.5536318 L41.28,107.812759 L15.936,113.556442 L15.936,138.804442 L0.096,142.394244 L0,78.096 L47.52,67.326595 L44.928,81.8340171 L15.936,88.404442 L15.936,99.732442 Z M84.096,123.357417 L81.696,114.397326 L62.016,118.857383 L59.712,128.883536 L44.064,132.429824 L57.216,79.0492013 L53.28,79.9412126 L55.776,65.4555469 L82.848,59.3202495 L99.84,119.789371 L84.096,123.357417 Z M71.904,77.0644761 L65.472,104.154153 L78.24,101.260555 L71.904,77.0644761 Z M105.696,118.462233 L105.6,54.1639889 L121.44,50.5741873 L121.44,100.878187 L153.024,93.7203403 L150.528,108.302006 L105.696,118.462233 Z M159.648,106.235151 L159.552,41.9369069 L175.392,38.3471053 L175.392,88.6511053 L206.976,81.4932583 L204.48,96.074924 L159.648,106.235151 Z M213.792,93.9645558 L213.792,29.6445558 L229.632,26.0547541 L229.632,90.3747541 L213.792,93.9645558 Z M289.824,76.7335078 L273.984,80.3233095 L255.84,52.6592641 L255.84,84.4352641 L240,88.0250658 L240,37.5290658 L235.968,38.4428335 L238.464,23.9571677 L256.032,20.0717514 L273.984,47.9713095 L273.984,16.0033095 L289.824,12.4135078 L289.824,76.7335078 Z M308.64,72.4692586 C307.295993,72.7738493 306.032006,72.8043079 304.848,72.5606353 C303.663994,72.3169627 302.624004,71.8486615 301.728,71.1557175 C300.831996,70.4627735 300.128003,69.582329 299.616,68.5143577 C299.103997,67.4463864 298.848,66.2404154 298.848,64.8964087 L298.848,20.2564087 C298.848,18.912402 299.103997,17.5903982 299.616,16.2903577 C300.128003,14.9903172 300.831996,13.7907825 301.728,12.6917175 C302.624004,11.5926525 303.663994,10.6529678 304.848,9.87263533 C306.032006,9.09230282 307.295993,8.54984933 308.64,8.24525857 L346.176,-0.261483542 L343.584,14.1499385 L314.88,20.6550943 L314.88,57.1350943 L332.928,53.044896 L332.928,41.620896 L322.656,43.948828 L325.248,29.4414059 L348.864,24.089338 L348.864,63.353338 L308.64,72.4692586 Z M110.064,150.016318 C111.248006,150.25999 112.271996,150.715918 113.136,151.384114 C114.000004,152.05231 114.687997,152.92038 115.2,153.988352 C115.712003,155.056323 115.968,156.262294 115.968,157.606301 L115.968,202.246301 C115.968,203.590307 115.712003,204.928311 115.2,206.260352 C114.687997,207.592392 114.000004,208.804301 113.136,209.896114 C112.271996,210.987926 111.248006,211.923985 110.064,212.704318 C108.879994,213.48465 107.616007,214.027104 106.272,214.331694 L65.952,223.469371 L65.952,172.973371 L61.824,173.908895 L64.32,159.61523 L106.272,150.107694 C107.616007,149.803104 108.879994,149.772645 110.064,150.016318 Z M81.792,169.38357 L81.792,205.86357 L100.032,201.729859 L100.032,165.249859 L81.792,169.38357 Z M168.528,136.766686 C169.712006,137.010359 170.751996,137.47866 171.648,138.171604 C172.544004,138.864548 173.247997,139.744992 173.76,140.812964 C174.272003,141.880935 174.528,143.086906 174.528,144.430913 L174.528,189.070913 C174.528,190.414919 174.272003,191.736923 173.76,193.036964 C173.247997,194.337004 172.544004,195.536539 171.648,196.635604 C170.751996,197.734669 169.712006,198.674353 168.528,199.454686 C167.343994,200.235018 166.080007,200.777472 164.736,201.082063 L134.304,207.978833 C132.959993,208.283424 131.696006,208.313883 130.512,208.07021 C129.327994,207.826537 128.288004,207.358236 127.392,206.665292 C126.495996,205.972348 125.792003,205.091904 125.28,204.023932 C124.767997,202.955961 124.512,201.74999 124.512,200.405983 L124.512,155.765983 C124.512,154.421977 124.767997,153.099973 125.28,151.799932 C125.792003,150.499892 126.495996,149.300357 127.392,148.201292 C128.288004,147.102227 129.327994,146.162542 130.512,145.38221 C131.696006,144.601877 132.959993,144.059424 134.304,143.754833 L164.736,136.858063 C166.080007,136.553472 167.343994,136.523013 168.528,136.766686 Z M140.544,156.356669 L140.544,192.740669 L158.688,188.628714 L158.688,152.244714 L140.544,156.356669 Z M228.624,123.147196 C229.808006,123.390869 230.831996,123.846796 231.696,124.514992 C232.560004,125.183188 233.247997,126.051259 233.76,127.11923 C234.272003,128.187201 234.528,129.393172 234.528,130.737179 L234.528,175.377179 C234.528,176.721186 234.272003,178.059189 233.76,179.39123 C233.247997,180.723271 232.560004,181.935179 231.696,183.026992 C230.831996,184.118805 229.808006,185.054864 228.624,185.835196 C227.439994,186.615529 226.176007,187.157982 224.832,187.462573 L184.512,196.60025 L184.512,146.10425 L180.384,147.039774 L182.88,132.746108 L224.832,123.238573 C226.176007,122.933982 227.439994,122.903523 228.624,123.147196 Z M200.352,142.514448 L200.352,178.994448 L218.592,174.860737 L218.592,138.380737 L200.352,142.514448 Z M253.056,181.066199 C251.711993,181.37079 250.448006,181.401248 249.264,181.157576 C248.079994,180.913903 247.040004,180.445602 246.144,179.752658 C245.247996,179.059714 244.544003,178.179269 244.032,177.111298 C243.519997,176.043327 243.264,174.837356 243.264,173.493349 L243.264,128.853349 C243.264,127.509342 243.519997,126.187339 244.032,124.887298 C244.544003,123.587258 245.247996,122.387723 246.144,121.288658 C247.040004,120.189593 248.079994,119.249908 249.264,118.469576 C250.448006,117.689243 251.711993,117.14679 253.056,116.842199 L290.592,108.335457 L288,122.746879 L259.296,129.252035 L259.296,165.732035 L277.344,161.641836 L277.344,150.217836 L267.072,152.545768 L269.664,138.038346 L293.28,132.686278 L293.28,171.950278 L253.056,181.066199 Z M350.016,145.076262 L347.52,159.657927 L302.592,169.83991 L302.592,105.51991 L350.208,94.7287488 L347.52,109.257927 L318.432,115.850108 L318.432,127.178108 L345.696,120.999298 L343.776,135.258426 L318.432,141.002108 L318.432,152.234108 L350.016,145.076262 Z" id="FALLING-3" stroke="#FFFFFF" stroke-width="4" fill="url(#linearGradient-1)"></path>
                <path d="M15.936,99.732442 L43.2,93.5536318 L41.28,107.812759 L15.936,113.556442 L15.936,138.804442 L0.096,142.394244 L0,78.096 L47.52,67.326595 L44.928,81.8340171 L15.936,88.404442 L15.936,99.732442 Z M84.096,123.357417 L81.696,114.397326 L62.016,118.857383 L59.712,128.883536 L44.064,132.429824 L57.216,79.0492013 L53.28,79.9412126 L55.776,65.4555469 L82.848,59.3202495 L99.84,119.789371 L84.096,123.357417 Z M71.904,77.0644761 L65.472,104.154153 L78.24,101.260555 L71.904,77.0644761 Z M105.696,118.462233 L105.6,54.1639889 L121.44,50.5741873 L121.44,100.878187 L153.024,93.7203403 L150.528,108.302006 L105.696,118.462233 Z M159.648,106.235151 L159.552,41.9369069 L175.392,38.3471053 L175.392,88.6511053 L206.976,81.4932583 L204.48,96.074924 L159.648,106.235151 Z M213.792,93.9645558 L213.792,29.6445558 L229.632,26.0547541 L229.632,90.3747541 L213.792,93.9645558 Z M289.824,76.7335078 L273.984,80.3233095 L255.84,52.6592641 L255.84,84.4352641 L240,88.0250658 L240,37.5290658 L235.968,38.4428335 L238.464,23.9571677 L256.032,20.0717514 L273.984,47.9713095 L273.984,16.0033095 L289.824,12.4135078 L289.824,76.7335078 Z M308.64,72.4692586 C307.295993,72.7738493 306.032006,72.8043079 304.848,72.5606353 C303.663994,72.3169627 302.624004,71.8486615 301.728,71.1557175 C300.831996,70.4627735 300.128003,69.582329 299.616,68.5143577 C299.103997,67.4463864 298.848,66.2404154 298.848,64.8964087 L298.848,20.2564087 C298.848,18.912402 299.103997,17.5903982 299.616,16.2903577 C300.128003,14.9903172 300.831996,13.7907825 301.728,12.6917175 C302.624004,11.5926525 303.663994,10.6529678 304.848,9.87263533 C306.032006,9.09230282 307.295993,8.54984933 308.64,8.24525857 L346.176,-0.261483542 L343.584,14.1499385 L314.88,20.6550943 L314.88,57.1350943 L332.928,53.044896 L332.928,41.620896 L322.656,43.948828 L325.248,29.4414059 L348.864,24.089338 L348.864,63.353338 L308.64,72.4692586 Z M110.064,150.016318 C111.248006,150.25999 112.271996,150.715918 113.136,151.384114 C114.000004,152.05231 114.687997,152.92038 115.2,153.988352 C115.712003,155.056323 115.968,156.262294 115.968,157.606301 L115.968,202.246301 C115.968,203.590307 115.712003,204.928311 115.2,206.260352 C114.687997,207.592392 114.000004,208.804301 113.136,209.896114 C112.271996,210.987926 111.248006,211.923985 110.064,212.704318 C108.879994,213.48465 107.616007,214.027104 106.272,214.331694 L65.952,223.469371 L65.952,172.973371 L61.824,173.908895 L64.32,159.61523 L106.272,150.107694 C107.616007,149.803104 108.879994,149.772645 110.064,150.016318 Z M81.792,169.38357 L81.792,205.86357 L100.032,201.729859 L100.032,165.249859 L81.792,169.38357 Z M168.528,136.766686 C169.712006,137.010359 170.751996,137.47866 171.648,138.171604 C172.544004,138.864548 173.247997,139.744992 173.76,140.812964 C174.272003,141.880935 174.528,143.086906 174.528,144.430913 L174.528,189.070913 C174.528,190.414919 174.272003,191.736923 173.76,193.036964 C173.247997,194.337004 172.544004,195.536539 171.648,196.635604 C170.751996,197.734669 169.712006,198.674353 168.528,199.454686 C167.343994,200.235018 166.080007,200.777472 164.736,201.082063 L134.304,207.978833 C132.959993,208.283424 131.696006,208.313883 130.512,208.07021 C129.327994,207.826537 128.288004,207.358236 127.392,206.665292 C126.495996,205.972348 125.792003,205.091904 125.28,204.023932 C124.767997,202.955961 124.512,201.74999 124.512,200.405983 L124.512,155.765983 C124.512,154.421977 124.767997,153.099973 125.28,151.799932 C125.792003,150.499892 126.495996,149.300357 127.392,148.201292 C128.288004,147.102227 129.327994,146.162542 130.512,145.38221 C131.696006,144.601877 132.959993,144.059424 134.304,143.754833 L164.736,136.858063 C166.080007,136.553472 167.343994,136.523013 168.528,136.766686 Z M140.544,156.356669 L140.544,192.740669 L158.688,188.628714 L158.688,152.244714 L140.544,156.356669 Z M228.624,123.147196 C229.808006,123.390869 230.831996,123.846796 231.696,124.514992 C232.560004,125.183188 233.247997,126.051259 233.76,127.11923 C234.272003,128.187201 234.528,129.393172 234.528,130.737179 L234.528,175.377179 C234.528,176.721186 234.272003,178.059189 233.76,179.39123 C233.247997,180.723271 232.560004,181.935179 231.696,183.026992 C230.831996,184.118805 229.808006,185.054864 228.624,185.835196 C227.439994,186.615529 226.176007,187.157982 224.832,187.462573 L184.512,196.60025 L184.512,146.10425 L180.384,147.039774 L182.88,132.746108 L224.832,123.238573 C226.176007,122.933982 227.439994,122.903523 228.624,123.147196 Z M200.352,142.514448 L200.352,178.994448 L218.592,174.860737 L218.592,138.380737 L200.352,142.514448 Z M253.056,181.066199 C251.711993,181.37079 250.448006,181.401248 249.264,181.157576 C248.079994,180.913903 247.040004,180.445602 246.144,179.752658 C245.247996,179.059714 244.544003,178.179269 244.032,177.111298 C243.519997,176.043327 243.264,174.837356 243.264,173.493349 L243.264,128.853349 C243.264,127.509342 243.519997,126.187339 244.032,124.887298 C244.544003,123.587258 245.247996,122.387723 246.144,121.288658 C247.040004,120.189593 248.079994,119.249908 249.264,118.469576 C250.448006,117.689243 251.711993,117.14679 253.056,116.842199 L290.592,108.335457 L288,122.746879 L259.296,129.252035 L259.296,165.732035 L277.344,161.641836 L277.344,150.217836 L267.072,152.545768 L269.664,138.038346 L293.28,132.686278 L293.28,171.950278 L253.056,181.066199 Z M350.016,145.076262 L347.52,159.657927 L302.592,169.83991 L302.592,105.51991 L350.208,94.7287488 L347.52,109.257927 L318.432,115.850108 L318.432,127.178108 L345.696,120.999298 L343.776,135.258426 L318.432,141.002108 L318.432,152.234108 L350.016,145.076262 Z" id="FALLING-2" stroke="#F6A623"></path>
            </g>
            <g id="Sky-Element-01-2" transform="translate(321.500000, 195.500000) rotate(-18.000000) translate(-321.500000, -195.500000) translate(268.000000, 174.000000)">
                <g id="Oval-1">
                    <use fill="url(#radialGradient-2)" sketch:type="MSShapeGroup" xlink:href="#path-4"></use>
                    <use fill="url(#linearGradient-3)" xlink:href="#path-4"></use>
                </g>
                <g id="Oval-3">
                    <use fill="url(#radialGradient-5)" sketch:type="MSShapeGroup" xlink:href="#path-7"></use>
                    <use fill="url(#linearGradient-6)" xlink:href="#path-7"></use>
                </g>
            </g>
        </g>
        <g id="Stars" sketch:type="MSLayerGroup" transform="translate(60.000000, 90.000000)" fill="#FFFFFF">
            <path d="M107,79 L105,73 L99,71 L105,69 L107,63 L109,69 L115,71 L109,73 L107,79 Z" id="Star-5" sketch:type="MSShapeGroup"></path>
            <path d="M154,122 L152,128 L150,122 L144,120 L150,118 L152,112 L154,118 L160,120 L154,122 L154,122 Z" id="Star-2" opacity="0.8" sketch:type="MSShapeGroup"></path>
            <path d="M220,49 L218,55 L216,49 L210,47 L216,45 L218,39 L220,45 L226,47 L220,49 L220,49 Z" id="Star-3" opacity="0.6" sketch:type="MSShapeGroup"></path>
            <path d="M117,177 L115,183 L113,177 L107,175 L113,173 L115,167 L117,173 L123,175 L117,177 L117,177 Z" id="Star-4" opacity="0.25" sketch:type="MSShapeGroup"></path>
            <path d="M356,247 L354,241 L348,239 L354,237 L356,231 L358,237 L364,239 L358,241 L356,247 Z" id="Star-9" sketch:type="MSShapeGroup"></path>
            <path d="M46,39 L44,45 L42,39 L36,37 L42,35 L44,29 L46,35 L52,37 L46,39 L46,39 Z" id="Star-6" opacity="0.8" sketch:type="MSShapeGroup"></path>
            <path d="M296,57 L294,63 L292,57 L286,55 L292,53 L294,47 L296,53 L302,55 L296,57 L296,57 Z" id="Star-7" opacity="0.6" sketch:type="MSShapeGroup"></path>
            <path d="M34,98 L32,104 L30,98 L24,96 L30,94 L32,88 L34,94 L40,96 L34,98 L34,98 Z" id="Star-8" opacity="0.25" sketch:type="MSShapeGroup"></path>
            <path d="M131,279 L129,273 L123,271 L129,269 L131,263 L133,269 L139,271 L133,273 L131,279 Z" id="Star-13" sketch:type="MSShapeGroup"></path>
            <path d="M358,114 L356,120 L354,114 L348,112 L354,110 L356,104 L358,110 L364,112 L358,114 L358,114 Z" id="Star-10" opacity="0.8" sketch:type="MSShapeGroup"></path>
            <path d="M317,10 L315,16 L313,10 L307,8 L313,6 L315,0 L317,6 L323,8 L317,10 L317,10 Z" id="Star-11" opacity="0.6" sketch:type="MSShapeGroup"></path>
            <path d="M272,130 L270,136 L268,130 L262,128 L268,126 L270,120 L272,126 L278,128 L272,130 L272,130 Z" id="Star-12" opacity="0.25" sketch:type="MSShapeGroup"></path>
            <path d="M189,199 L187,193 L181,191 L187,189 L189,183 L191,189 L197,191 L191,193 L189,199 Z" id="Star-17" sketch:type="MSShapeGroup"></path>
            <path d="M242,307 L240,313 L238,307 L232,305 L238,303 L240,297 L242,303 L248,305 L242,307 L242,307 Z" id="Star-14" opacity="0.8" sketch:type="MSShapeGroup"></path>
            <path d="M199,249 L197,255 L195,249 L189,247 L195,245 L197,239 L199,245 L205,247 L199,249 L199,249 Z" id="Star-15" opacity="0.6" sketch:type="MSShapeGroup"></path>
            <path d="M62,229 L60,235 L58,229 L52,227 L58,225 L60,219 L62,225 L68,227 L62,229 L62,229 Z" id="Star-16" opacity="0.25" sketch:type="MSShapeGroup"></path>
            <path d="M378,154 L376,148 L370,146 L376,144 L378,138 L380,144 L386,146 L380,148 L378,154 Z" id="Star-21" sketch:type="MSShapeGroup"></path>
            <path d="M10,217 L8,223 L6,217 L0,215 L6,213 L8,207 L10,213 L16,215 L10,217 L10,217 Z" id="Star-18" opacity="0.8" sketch:type="MSShapeGroup"></path>
            <path d="M86,233 L84,239 L82,233 L76,231 L82,229 L84,223 L86,229 L92,231 L86,233 L86,233 Z" id="Star-19" opacity="0.6" sketch:type="MSShapeGroup"></path>
            <path d="M125,140 L123,146 L121,140 L115,138 L121,136 L123,130 L125,136 L131,138 L125,140 L125,140 Z" id="Star-20" opacity="0.25" sketch:type="MSShapeGroup"></path>
        </g>
    </g>
</svg>