<?xml version="1.0" encoding="UTF-8" standalone="no"?>
<svg width="512px" height="512px" viewBox="0 0 512 512" version="1.1" xmlns="http://www.w3.org/2000/svg" xmlns:xlink="http://www.w3.org/1999/xlink" xmlns:sketch="http://www.bohemiancoding.com/sketch/ns">
    <!-- Generator: Sketch 3.0.4 (8053) - http://www.bohemiancoding.com/sketch -->
    <title>Logo SVG</title>
    <desc>Created with Sketch.</desc>
    <defs>
        <linearGradient x1="50%" y1="0%" x2="50%" y2="100%" id="linearGradient-1">
            <stop stop-color="#FFE31D" offset="0%"></stop>
            <stop stop-color="#FDA125" offset="100%"></stop>
        </linearGradient>
        <radialGradient cx="33.2899306%" cy="34.3424479%" fx="33.2899306%" fy="34.3424479%" r="123.729079%" id="radialGradient-2">
            <stop stop-color="#FF8686" offset="0%"></stop>
            <stop stop-color="#A40000" offset="100%"></stop>
        </radialGradient>
        <linearGradient x1="50%" y1="26.4350043%" x2="79.1856554%" y2="100%" id="linearGradient-3">
            <stop stop-color="#FFA2A2" stop-opacity="0.5" offset="0%"></stop>
            <stop stop-color="#340101" stop-opacity="0.5" offset="100%"></stop>
        </linearGradient>
        <ellipse id="path-4" cx="54.5" cy="21.5" rx="24.5" ry="21.5"></ellipse>
        <radialGradient cx="32.1437401%" cy="15.0830078%" fx="32.1437401%" fy="15.0830078%" r="90.6628234%" id="radialGradient-5">
            <stop stop-color="#F864FF" offset="0%"></stop>
            <stop stop-color="#AF0707" offset="100%"></stop>
        </radialGradient>
        <linearGradient x1="50%" y1="0%" x2="50%" y2="100%" id="linearGradient-6">
            <stop stop-color="#FFFFFF" stop-opacity="0.5" offset="0%"></stop>
            <stop stop-color="#000000" stop-opacity="0.5" offset="100%"></stop>
        </linearGradient>
        <path d="M96.9789079,17.0060831 C103.286008,18.975212 107,21.390322 107,24 C107,30.627417 83.0472341,36 53.5,36 C23.9527659,36 0,30.627417 0,24 C0,20.6928044 5.96467564,17.6980854 15.612744,15.5275326 C10.1859575,17.4730522 7,19.6715327 7,21.6666667 C7,26.8213243 28.2664744,31 54.5,31 C80.7335256,31 102,26.8213243 102,21.6666667 C102,20.1635164 100.191574,18.5449417 96.9789079,17.0060831 Z" id="path-7"></path>
    </defs>
    <g id="Layers" stroke="none" stroke-width="1" fill="none" fill-rule="evenodd" sketch:type="MSPage">
        <rect id="Rectangle-14" stroke="#979797" sketch:type="MSShapeGroup" x="0" y="0" width="512" height="512"></rect>
        <g id="FALLING-DODGE-4-+-Sky-Element-01-4" sketch:type="MSLayerGroup" transform="translate(60.000000, 111.000000)">
            <g id="FALLING-3-+-FALLING-2" transform="translate(18.000000, 10.000000)" sketch:type="MSShapeGroup">
                <path d="M43.2,105.825391 L41.28,120.161329 L15.936,126.918913 L15.936,152.166913 L0.096,156.390403 L0,92.096 L47.52,79.4255298 L44.928,94.0366464 L15.936,101.766913 L15.936,113.094913 L43.2,105.825391 Z M81.696,125.12903 L62.016,130.376397 L59.712,140.494722 L44.064,144.667019 L57.216,90.760242 L53.28,91.8097153 L55.776,77.2241956 L82.848,70.0058672 L99.84,129.795214 L84.096,133.993107 L81.696,125.12903 Z M65.472,115.534908 L78.24,112.130519 L71.904,88.1879149 L65.472,115.534908 Z M105.6,63.9393997 L121.44,59.7159096 L121.44,110.01991 L153.024,101.598526 L150.528,116.280046 L105.696,128.233803 L105.6,63.9393997 Z M159.552,49.5539366 L175.392,45.3304465 L175.392,95.6344465 L206.976,87.2130633 L204.48,101.894583 L159.648,113.84834 L159.552,49.5539366 Z M213.792,35.0916827 L229.632,30.8681927 L229.632,95.1881927 L213.792,99.4116827 L213.792,35.0916827 Z M273.984,83.3624205 L255.84,56.4242364 L255.84,88.2002364 L240,92.4237265 L240,41.9277265 L235.968,43.0027967 L238.464,28.417277 L256.032,23.8290426 L273.984,51.0104205 L273.984,19.0424205 L289.824,14.8189305 L289.824,79.1389305 L273.984,83.3624205 Z M304.848,74.3650142 C303.663994,74.1687084 302.624004,73.7420125 301.728,73.0849137 C300.831996,72.4278149 300.128003,71.5755341 299.616,70.5280457 C299.103997,69.4805573 298.848,68.2848277 298.848,66.940821 L298.848,22.300821 C298.848,20.9568143 299.103997,19.6245692 299.616,18.3040457 C300.128003,16.9835223 300.831996,15.7558239 301.728,14.6209137 C302.624004,13.4860036 303.663994,12.5047135 304.848,11.6770142 C306.032006,10.8493148 307.295993,10.2562948 308.64,9.89793625 L346.176,-0.110455328 L343.584,14.4046612 L314.88,22.0581371 L314.88,58.5381371 L332.928,53.7259182 L332.928,42.3019182 L322.656,45.0407875 L325.248,30.4296709 L348.864,24.1328312 L348.864,63.3968312 L308.64,74.1219363 C307.295993,74.4802948 306.032006,74.5613199 304.848,74.3650142 Z M113.136,160.858042 C114.000004,161.491673 114.687997,162.33222 115.2,163.379709 C115.712003,164.427197 115.968,165.622927 115.968,166.966933 L115.968,211.606933 C115.968,212.95094 115.712003,214.299185 115.2,215.651709 C114.687997,217.004232 114.000004,218.243664 113.136,219.370042 C112.271996,220.49642 111.248006,221.473444 110.064,222.301143 C108.879994,223.128843 107.616007,223.721863 106.272,224.080221 L65.952,234.830923 L65.952,184.334923 L61.824,185.43559 L64.32,171.042071 L106.272,159.856221 C107.616007,159.497863 108.879994,159.416838 110.064,159.613143 C111.248006,159.809449 112.271996,160.224411 113.136,160.858042 Z M81.792,216.591433 L100.032,211.72802 L100.032,175.24802 L81.792,180.111433 L81.792,216.591433 Z M171.648,145.304726 C172.544004,145.961825 173.247997,146.814106 173.76,147.861594 C174.272003,148.909082 174.528,150.104812 174.528,151.448819 L174.528,196.088819 C174.528,197.432825 174.272003,198.765071 173.76,200.085594 C173.247997,201.406117 172.544004,202.633816 171.648,203.768726 C170.751996,204.903636 169.712006,205.884926 168.528,206.712626 C167.343994,207.540325 166.080007,208.133345 164.736,208.491703 L134.304,216.605924 C132.959993,216.964282 131.696006,217.045307 130.512,216.849002 C129.327994,216.652696 128.288004,216.226 127.392,215.568901 C126.495996,214.911802 125.792003,214.059522 125.28,213.012033 C124.767997,211.964545 124.512,210.768815 124.512,209.424808 L124.512,164.784808 C124.512,163.440802 124.767997,162.108557 125.28,160.788033 C125.792003,159.46751 126.495996,158.239811 127.392,157.104901 C128.288004,155.969991 129.327994,154.988701 130.512,154.161002 C131.696006,153.333302 132.959993,152.740282 134.304,152.381924 L164.736,144.267703 C166.080007,143.909345 167.343994,143.82832 168.528,144.024626 C169.712006,144.220931 170.751996,144.647627 171.648,145.304726 Z M140.544,201.118125 L158.688,196.280309 L158.688,159.896309 L140.544,164.734125 L140.544,201.118125 Z M231.696,129.245859 C232.560004,129.87949 233.247997,130.720037 233.76,131.767526 C234.272003,132.815014 234.528,134.010744 234.528,135.35475 L234.528,179.99475 C234.528,181.338757 234.272003,182.687002 233.76,184.039526 C233.247997,185.392049 232.560004,186.631481 231.696,187.757859 C230.831996,188.884237 229.808006,189.861261 228.624,190.68896 C227.439994,191.51666 226.176007,192.10968 224.832,192.468038 L184.512,203.21874 L184.512,152.72274 L180.384,153.823407 L182.88,139.429888 L224.832,128.244038 C226.176007,127.88568 227.439994,127.804654 228.624,128.00096 C229.808006,128.197266 230.831996,128.612228 231.696,129.245859 Z M200.352,184.97925 L218.592,180.115837 L218.592,143.635837 L200.352,148.49925 L200.352,184.97925 Z M249.264,185.185625 C248.079994,184.989319 247.040004,184.562623 246.144,183.905524 C245.247996,183.248425 244.544003,182.396145 244.032,181.348656 C243.519997,180.301168 243.264,179.105438 243.264,177.761432 L243.264,133.121432 C243.264,131.777425 243.519997,130.44518 244.032,129.124656 C244.544003,127.804133 245.247996,126.576434 246.144,125.441524 C247.040004,124.306614 248.079994,123.325324 249.264,122.497625 C250.448006,121.669925 251.711993,121.076905 253.056,120.718547 L290.592,110.710155 L288,125.225272 L259.296,132.878748 L259.296,169.358748 L277.344,164.546529 L277.344,153.122529 L267.072,155.861398 L269.664,141.250281 L293.28,134.953442 L293.28,174.217442 L253.056,184.942547 C251.711993,185.300905 250.448006,185.38193 249.264,185.185625 Z M347.52,159.755188 L302.592,171.734542 L302.592,107.414542 L350.208,94.7184745 L347.52,109.355188 L318.432,117.111051 L318.432,128.439051 L345.696,121.169529 L343.776,135.505467 L318.432,142.263051 L318.432,153.495051 L350.016,145.073668 L347.52,159.755188 Z" id="FALLING-3" stroke="#FFFFFF" stroke-width="4" fill="url(#linearGradient-1)"></path>
                <path d="M43.2,105.825391 L41.28,120.161329 L15.936,126.918913 L15.936,152.166913 L0.096,156.390403 L0,92.096 L47.52,79.4255298 L44.928,94.0366464 L15.936,101.766913 L15.936,113.094913 L43.2,105.825391 Z M81.696,125.12903 L62.016,130.376397 L59.712,140.494722 L44.064,144.667019 L57.216,90.760242 L53.28,91.8097153 L55.776,77.2241956 L82.848,70.0058672 L99.84,129.795214 L84.096,133.993107 L81.696,125.12903 Z M65.472,115.534908 L78.24,112.130519 L71.904,88.1879149 L65.472,115.534908 Z M105.6,63.9393997 L121.44,59.7159096 L121.44,110.01991 L153.024,101.598526 L150.528,116.280046 L105.696,128.233803 L105.6,63.9393997 Z M159.552,49.5539366 L175.392,45.3304465 L175.392,95.6344465 L206.976,87.2130633 L204.48,101.894583 L159.648,113.84834 L159.552,49.5539366 Z M213.792,35.0916827 L229.632,30.8681927 L229.632,95.1881927 L213.792,99.4116827 L213.792,35.0916827 Z M273.984,83.3624205 L255.84,56.4242364 L255.84,88.2002364 L240,92.4237265 L240,41.9277265 L235.968,43.0027967 L238.464,28.417277 L256.032,23.8290426 L273.984,51.0104205 L273.984,19.0424205 L289.824,14.8189305 L289.824,79.1389305 L273.984,83.3624205 Z M304.848,74.3650142 C303.663994,74.1687084 302.624004,73.7420125 301.728,73.0849137 C300.831996,72.4278149 300.128003,71.5755341 299.616,70.5280457 C299.103997,69.4805573 298.848,68.2848277 298.848,66.940821 L298.848,22.300821 C298.848,20.9568143 299.103997,19.6245692 299.616,18.3040457 C300.128003,16.9835223 300.831996,15.7558239 301.728,14.6209137 C302.624004,13.4860036 303.663994,12.5047135 304.848,11.6770142 C306.032006,10.8493148 307.295993,10.2562948 308.64,9.89793625 L346.176,-0.110455328 L343.584,14.4046612 L314.88,22.0581371 L314.88,58.5381371 L332.928,53.7259182 L332.928,42.3019182 L322.656,45.0407875 L325.248,30.4296709 L348.864,24.1328312 L348.864,63.3968312 L308.64,74.1219363 C307.295993,74.4802948 306.032006,74.5613199 304.848,74.3650142 Z M113.136,160.858042 C114.000004,161.491673 114.687997,162.33222 115.2,163.379709 C115.712003,164.427197 115.968,165.622927 115.968,166.966933 L115.968,211.606933 C115.968,212.95094 115.712003,214.299185 115.2,215.651709 C114.687997,217.004232 114.000004,218.243664 113.136,219.370042 C112.271996,220.49642 111.248006,221.473444 110.064,222.301143 C108.879994,223.128843 107.616007,223.721863 106.272,224.080221 L65.952,234.830923 L65.952,184.334923 L61.824,185.43559 L64.32,171.042071 L106.272,159.856221 C107.616007,159.497863 108.879994,159.416838 110.064,159.613143 C111.248006,159.809449 112.271996,160.224411 113.136,160.858042 Z M81.792,216.591433 L100.032,211.72802 L100.032,175.24802 L81.792,180.111433 L81.792,216.591433 Z M171.648,145.304726 C172.544004,145.961825 173.247997,146.814106 173.76,147.861594 C174.272003,148.909082 174.528,150.104812 174.528,151.448819 L174.528,196.088819 C174.528,197.432825 174.272003,198.765071 173.76,200.085594 C173.247997,201.406117 172.544004,202.633816 171.648,203.768726 C170.751996,204.903636 169.712006,205.884926 168.528,206.712626 C167.343994,207.540325 166.080007,208.133345 164.736,208.491703 L134.304,216.605924 C132.959993,216.964282 131.696006,217.045307 130.512,216.849002 C129.327994,216.652696 128.288004,216.226 127.392,215.568901 C126.495996,214.911802 125.792003,214.059522 125.28,213.012033 C124.767997,211.964545 124.512,210.768815 124.512,209.424808 L124.512,164.784808 C124.512,163.440802 124.767997,162.108557 125.28,160.788033 C125.792003,159.46751 126.495996,158.239811 127.392,157.104901 C128.288004,155.969991 129.327994,154.988701 130.512,154.161002 C131.696006,153.333302 132.959993,152.740282 134.304,152.381924 L164.736,144.267703 C166.080007,143.909345 167.343994,143.82832 168.528,144.024626 C169.712006,144.220931 170.751996,144.647627 171.648,145.304726 Z M140.544,201.118125 L158.688,196.280309 L158.688,159.896309 L140.544,164.734125 L140.544,201.118125 Z M231.696,129.245859 C232.560004,129.87949 233.247997,130.720037 233.76,131.767526 C234.272003,132.815014 234.528,134.010744 234.528,135.35475 L234.528,179.99475 C234.528,181.338757 234.272003,182.687002 233.76,184.039526 C233.247997,185.392049 232.560004,186.631481 231.696,187.757859 C230.831996,188.884237 229.808006,189.861261 228.624,190.68896 C227.439994,191.51666 226.176007,192.10968 224.832,192.468038 L184.512,203.21874 L184.512,152.72274 L180.384,153.823407 L182.88,139.429888 L224.832,128.244038 C226.176007,127.88568 227.439994,127.804654 228.624,128.00096 C229.808006,128.197266 230.831996,128.612228 231.696,129.245859 Z M200.352,184.97925 L218.592,180.115837 L218.592,143.635837 L200.352,148.49925 L200.352,184.97925 Z M249.264,185.185625 C248.079994,184.989319 247.040004,184.562623 246.144,183.905524 C245.247996,183.248425 244.544003,182.396145 244.032,181.348656 C243.519997,180.301168 243.264,179.105438 243.264,177.761432 L243.264,133.121432 C243.264,131.777425 243.519997,130.44518 244.032,129.124656 C244.544003,127.804133 245.247996,126.576434 246.144,125.441524 C247.040004,124.306614 248.079994,123.325324 249.264,122.497625 C250.448006,121.669925 251.711993,121.076905 253.056,120.718547 L290.592,110.710155 L288,125.225272 L259.296,132.878748 L259.296,169.358748 L277.344,164.546529 L277.344,153.122529 L267.072,155.861398 L269.664,141.250281 L293.28,134.953442 L293.28,174.217442 L253.056,184.942547 C251.711993,185.300905 250.448006,185.38193 249.264,185.185625 Z M347.52,159.755188 L302.592,171.734542 L302.592,107.414542 L350.208,94.7184745 L347.52,109.355188 L318.432,117.111051 L318.432,128.439051 L345.696,121.169529 L343.776,135.505467 L318.432,142.263051 L318.432,153.495051 L350.016,145.073668 L347.52,159.755188 Z" id="FALLING-2" stroke="#F6A623"></path>
            </g>
            <g id="Sky-Element-01-2" transform="translate(321.500000, 195.500000) rotate(-18.000000) translate(-321.500000, -195.500000) translate(268.000000, 174.000000)">
                <g id="Oval-1">
                    <use fill="url(#radialGradient-2)" sketch:type="MSShapeGroup" xlink:href="#path-4"></use>
                    <use fill="url(#linearGradient-3)" xlink:href="#path-4"></use>
                </g>
                <g id="Oval-3">
                    <use fill="url(#radialGradient-5)" sketch:type="MSShapeGroup" xlink:href="#path-7"></use>
                    <use fill="url(#linearGradient-6)" xlink:href="#path-7"></use>
                </g>
            </g>
        </g>
        <g id="Stars" sketch:type="MSLayerGroup" transform="translate(60.000000, 90.000000)" fill="#FFFFFF">
            <path d="M107,79 L105,73 L99,71 L105,69 L107,63 L109,69 L115,71 L109,73 L107,79 Z" id="Star-5" sketch:type="MSShapeGroup"></path>
            <path d="M154,122 L152,128 L150,122 L144,120 L150,118 L152,112 L154,118 L160,120 L154,122 L154,122 Z" id="Star-2" opacity="0.8" sketch:type="MSShapeGroup"></path>
            <path d="M220,49 L218,55 L216,49 L210,47 L216,45 L218,39 L220,45 L226,47 L220,49 L220,49 Z" id="Star-3" opacity="0.6" sketch:type="MSShapeGroup"></path>
            <path d="M117,177 L115,183 L113,177 L107,175 L113,173 L115,167 L117,173 L123,175 L117,177 L117,177 Z" id="Star-4" opacity="0.25" sketch:type="MSShapeGroup"></path>
            <path d="M356,247 L354,241 L348,239 L354,237 L356,231 L358,237 L364,239 L358,241 L356,247 Z" id="Star-9" sketch:type="MSShapeGroup"></path>
            <path d="M46,39 L44,45 L42,39 L36,37 L42,35 L44,29 L46,35 L52,37 L46,39 L46,39 Z" id="Star-6" opacity="0.8" sketch:type="MSShapeGroup"></path>
            <path d="M296,57 L294,63 L292,57 L286,55 L292,53 L294,47 L296,53 L302,55 L296,57 L296,57 Z" id="Star-7" opacity="0.6" sketch:type="MSShapeGroup"></path>
            <path d="M34,98 L32,104 L30,98 L24,96 L30,94 L32,88 L34,94 L40,96 L34,98 L34,98 Z" id="Star-8" opacity="0.25" sketch:type="MSShapeGroup"></path>
            <path d="M131,279 L129,273 L123,271 L129,269 L131,263 L133,269 L139,271 L133,273 L131,279 Z" id="Star-13" sketch:type="MSShapeGroup"></path>
            <path d="M358,114 L356,120 L354,114 L348,112 L354,110 L356,104 L358,110 L364,112 L358,114 L358,114 Z" id="Star-10" opacity="0.8" sketch:type="MSShapeGroup"></path>
            <path d="M317,10 L315,16 L313,10 L307,8 L313,6 L315,0 L317,6 L323,8 L317,10 L317,10 Z" id="Star-11" opacity="0.6" sketch:type="MSShapeGroup"></path>
            <path d="M272,130 L270,136 L268,130 L262,128 L268,126 L270,120 L272,126 L278,128 L272,130 L272,130 Z" id="Star-12" opacity="0.25" sketch:type="MSShapeGroup"></path>
            <path d="M189,199 L187,193 L181,191 L187,189 L189,183 L191,189 L197,191 L191,193 L189,199 Z" id="Star-17" sketch:type="MSShapeGroup"></path>
            <path d="M242,307 L240,313 L238,307 L232,305 L238,303 L240,297 L242,303 L248,305 L242,307 L242,307 Z" id="Star-14" opacity="0.8" sketch:type="MSShapeGroup"></path>
            <path d="M199,249 L197,255 L195,249 L189,247 L195,245 L197,239 L199,245 L205,247 L199,249 L199,249 Z" id="Star-15" opacity="0.6" sketch:type="MSShapeGroup"></path>
            <path d="M62,229 L60,235 L58,229 L52,227 L58,225 L60,219 L62,225 L68,227 L62,229 L62,229 Z" id="Star-16" opacity="0.25" sketch:type="MSShapeGroup"></path>
            <path d="M378,154 L376,148 L370,146 L376,144 L378,138 L380,144 L386,146 L380,148 L378,154 Z" id="Star-21" sketch:type="MSShapeGroup"></path>
            <path d="M10,217 L8,223 L6,217 L0,215 L6,213 L8,207 L10,213 L16,215 L10,217 L10,217 Z" id="Star-18" opacity="0.8" sketch:type="MSShapeGroup"></path>
            <path d="M86,233 L84,239 L82,233 L76,231 L82,229 L84,223 L86,229 L92,231 L86,233 L86,233 Z" id="Star-19" opacity="0.6" sketch:type="MSShapeGroup"></path>
            <path d="M125,140 L123,146 L121,140 L115,138 L121,136 L123,130 L125,136 L131,138 L125,140 L125,140 Z" id="Star-20" opacity="0.25" sketch:type="MSShapeGroup"></path>
        </g>
    </g>
</svg>