<?xml version="1.0" encoding="UTF-8" standalone="no"?>
<!-- Created with Inkscape (http://www.inkscape.org/) -->

<svg
   xmlns:dc="http://purl.org/dc/elements/1.1/"
   xmlns:cc="http://creativecommons.org/ns#"
   xmlns:rdf="http://www.w3.org/1999/02/22-rdf-syntax-ns#"
   xmlns:svg="http://www.w3.org/2000/svg"
   xmlns="http://www.w3.org/2000/svg"
   xmlns:sodipodi="http://sodipodi.sourceforge.net/DTD/sodipodi-0.dtd"
   xmlns:inkscape="http://www.inkscape.org/namespaces/inkscape"
   width="710"
   height="260"
   id="svg2"
   version="1.1"
   inkscape:version="0.48.4 r"
   inkscape:export-filename="C:\Users\Antonio\Documents\git\falling-dodge\UserInterfaceElements\yolodevs@250x92.png"
   inkscape:export-xdpi="31.690142"
   inkscape:export-ydpi="31.690142"
   sodipodi:docname="Nuevo documento 1">
  <defs
     id="defs4" />
  <sodipodi:namedview
     id="base"
     pagecolor="#ffffff"
     bordercolor="#666666"
     borderopacity="1.0"
     inkscape:pageopacity="0.0"
     inkscape:pageshadow="2"
     inkscape:zoom="0.7"
     inkscape:cx="695.63635"
     inkscape:cy="194.35444"
     inkscape:document-units="px"
     inkscape:current-layer="layer1"
     showgrid="false"
     inkscape:window-width="1348"
     inkscape:window-height="699"
     inkscape:window-x="1"
     inkscape:window-y="0"
     inkscape:window-maximized="1" />
  <metadata
     id="metadata7">
    <rdf:RDF>
      <cc:Work
         rdf:about="">
        <dc:format>image/svg+xml</dc:format>
        <dc:type
           rdf:resource="http://purl.org/dc/dcmitype/StillImage" />
        <dc:title></dc:title>
      </cc:Work>
    </rdf:RDF>
  </metadata>
  <g
     inkscape:label="Capa 1"
     inkscape:groupmode="layer"
     id="layer1"
     transform="translate(0,-792.36023)">
    <g
       id="g3050"
       transform="translate(-104.6106,418.87322)"
       style="fill:#0000ff">
      <path
         style="fill:#0000ff"
         d="m 186.42362,628.10486 c 4.88837,-1.31641 15.14265,-7.19729 16.42929,-9.42227 0.58889,-1.01837 1.81424,-2.63459 2.72299,-3.5916 0.90876,-0.95702 3.05127,-4.67135 4.76114,-8.25406 2.93081,-6.14095 3.13274,-7.32491 3.52574,-20.67184 0.22929,-7.7868 -0.002,-16.48696 -0.51344,-19.33369 -0.51168,-2.84673 -1.57703,-10.80088 -2.36745,-17.67588 -0.79041,-6.875 -2.1033,-14.75 -2.91752,-17.5 -0.81422,-2.75 -2.15915,-8.6 -2.98874,-13 -0.82959,-4.4 -2.38372,-11.375 -3.45361,-15.5 -1.06989,-4.125 -2.26529,-9.3 -2.65644,-11.5 -0.39115,-2.2 -1.29729,-4.675 -2.01363,-5.5 -1.23647,-1.42402 -3.71297,-16.6648 -3.57482,-22 0.0356,-1.375 0.95361,-5.069 2.04001,-8.20888 1.08639,-3.13989 1.70085,-6.42401 1.36545,-7.29805 -0.3354,-0.87404 0.0677,-2.13004 0.89571,-2.79111 0.90513,-0.72263 1.74932,-3.72021 2.11685,-7.51663 0.57834,-5.97398 0.50422,-6.28067 -1.37381,-5.68461 -1.52189,0.48303 -1.84496,0.26477 -1.38444,-0.93533 0.33038,-0.86096 1.22755,-1.56539 1.99371,-1.56539 0.76615,0 1.39301,-0.66088 1.39301,-1.46862 0,-0.83315 -0.5932,-1.24098 -1.37096,-0.94252 -1.44561,0.55473 -3.01308,-2.15846 -2.10026,-3.63543 0.2944,-0.47634 1.15922,-0.62665 1.92182,-0.33401 1.03528,0.39727 1.56248,-0.87592 2.08094,-5.02555 0.84554,-6.76749 -0.0147,-11.00617 -2.07341,-10.21618 -1.03944,0.39887 -1.45813,-0.16301 -1.45813,-1.95682 0,-2.83167 -4.34351,-7.42087 -7.02358,-7.42087 -0.95234,0 -2.29173,-0.675 -2.97642,-1.5 -1.59175,-1.91794 -7.0412,-1.93607 -9.55887,-0.0318 -1.06762,0.8075 -2.81213,1.4825 -3.87668,1.5 -2.4244,0.0398 -6.56445,3.83543 -6.56445,6.01828 0,0.90083 -0.99893,3.63488 -2.21984,6.07569 -3.01557,6.02861 -3.73467,20.74165 -1.29538,26.50392 0.91592,2.16365 2.76151,7.37517 4.10131,11.58116 1.3398,4.20599 3.10603,7.90437 3.92496,8.21862 2.18354,0.8379 1.81586,2.55666 -0.76105,3.55753 -1.2375,0.48065 -5.11913,3.48351 -8.62583,6.67303 -5.92932,5.39299 -6.7347,5.80893 -11.5,5.93918 -4.03076,0.11016 -5.72734,-0.3588 -7.9509,-2.19778 -1.55469,-1.28581 -3.24219,-2.33783 -3.75,-2.33783 -0.5078,0 -0.92327,-0.52707 -0.92327,-1.17126 0,-0.64419 -0.76211,-2.01338 -1.69358,-3.04264 -1.84162,-2.03497 -3.87714,-7.00711 -5.43208,-13.26889 -1.10963,-4.46848 0.33936,-34.89914 2.26557,-47.57989 1.3499,-8.8867 0.21567,-12.52101 -4.63291,-14.84488 -6.78242,-3.25073 -12.81773,-0.14082 -13.89811,7.1615 -2.06521,13.95886 -2.7949,22.79622 -3.28181,39.74606 -0.54871,19.10175 -0.50879,19.63275 1.95476,26 3.28602,8.49302 7.44783,15.92175 11.4013,20.35104 3.17911,3.56174 7.12122,5.71665 14.9874,8.1927 3.53327,1.11218 4.2533,1.09711 4.71215,-0.0986 0.66302,-1.7278 3.61731,-0.77889 3.61731,1.16188 0,3.33014 12.42717,0.3048 21.01383,-5.11572 5.07318,-3.20256 8.80532,-3.29891 9.34573,-0.24127 2.36704,13.39272 5.07072,25.81343 6.14932,28.25 1.31345,2.96709 2.28482,8.01845 5.09596,26.5 5.58475,36.71645 6.38882,48.06149 3.8828,54.78457 -2.85267,7.65311 -7.33975,12.8807 -12.25194,14.27391 -5.74844,1.63039 -12.32127,0.5753 -17.36536,-2.78752 -2.28597,-1.52403 -4.97862,-3.2558 -5.98366,-3.84838 -1.00503,-0.59258 -2.79979,-2.31369 -3.98833,-3.82468 -1.18855,-1.51099 -3.171,-3.13126 -4.40546,-3.6006 -1.80771,-0.68729 -2.41027,-1.98625 -3.09659,-6.67532 -0.46867,-3.20209 -0.72657,-7.44364 -0.57311,-9.42567 0.18804,-2.4287 -0.47126,-4.76381 -2.02209,-7.16174 -1.92781,-2.98085 -3.05828,-3.66686 -6.96861,-4.2288 -4.0581,-0.58318 -4.97204,-0.36636 -7,1.66061 -1.97811,1.97716 -2.38454,3.54799 -2.67511,10.3391 -0.78905,18.44171 9.54482,34.19311 28.60666,43.6037 3.44522,1.70086 7.93718,3.24797 9.98213,3.43803 2.04495,0.19006 3.89344,0.87161 4.10775,1.51456 0.42237,1.2671 9.67795,0.62941 16.14608,-1.11243 z m 112.73882,-9.94934 c 2.05236,-1.1 4.2662,-2 4.91965,-2 0.65344,0 2.5714,-1.16398 4.26211,-2.58663 2.3954,-2.01559 2.94032,-3.11942 2.46832,-5 -0.488,-1.94435 -0.21976,-2.41337 1.38025,-2.41337 2.72856,0 3.76428,-1.52919 5.75705,-8.5 0.94338,-3.3 2.21794,-6.62506 2.83235,-7.38903 0.6144,-0.76396 0.98755,-2.37766 0.8292,-3.58599 -0.15834,-1.20834 0.40964,-2.77588 1.26218,-3.48342 1.87323,-1.55465 1.99096,-4.34657 0.30007,-7.11603 -1.06364,-1.7421 -0.9606,-2.26189 0.69113,-3.48643 1.86434,-1.38217 1.86953,-1.49146 0.13125,-2.76252 -1.48015,-1.0823 -1.60606,-1.71996 -0.69113,-3.5 0.61531,-1.19712 1.56875,-3.07047 2.11875,-4.16301 1.33846,-2.65876 1.27567,-13.62996 -0.0926,-16.18667 -0.79019,-1.47648 -0.79019,-2.34407 0,-3.13426 0.60095,-0.60095 1.09264,-3.46011 1.09264,-6.35368 0,-4.11476 -0.474,-5.70265 -2.17549,-7.28783 -1.89803,-1.76828 -2.01516,-2.32638 -0.91838,-4.37573 1.04294,-1.94875 0.97384,-3.01564 -0.40558,-6.26217 -0.91448,-2.15228 -2.02466,-7.06323 -2.46707,-10.91323 -0.88849,-7.73195 -3.77397,-19.46816 -5.1508,-20.95 -0.48551,-0.5225 -0.88272,-1.92638 -0.88272,-3.11973 0,-4.88056 -9.30728,-28.26608 -11.88336,-29.85818 -0.61415,-0.37957 -1.11664,-1.98142 -1.11664,-3.55968 0,-1.57825 -0.5625,-3.47789 -1.25,-4.22142 -0.6875,-0.74352 -2.00735,-2.68816 -2.933,-4.32142 -0.92566,-1.63327 -2.48165,-3.41957 -3.45777,-3.96957 -0.97612,-0.55 -2.38841,-1.5625 -3.13843,-2.25 -0.75001,-0.6875 -1.8303,-1.25 -2.40064,-1.25 -0.60227,0 -0.77815,-1.03125 -0.41956,-2.45999 0.47709,-1.90086 0.10397,-2.73023 -1.64159,-3.64893 -1.24246,-0.65392 -3.68622,-2.83972 -5.43058,-4.85735 -2.82983,-3.27312 -12.03254,-9.03373 -14.43161,-9.03373 -0.50524,0 -2.9431,-0.95162 -5.41747,-2.11471 -2.76492,-1.29967 -5.555,-1.91008 -7.23911,-1.58376 -1.659,0.32145 -3.37792,-0.0412 -4.35634,-0.9191 -2.08768,-1.87318 -9.80881,-2.02139 -13.35445,-0.25635 -5.28422,2.63052 -6.5887,13.1405 -1.85438,14.94048 2.21709,0.84294 2.47712,1.42759 2.08952,4.69809 -0.24348,2.05444 -1.66698,7.78535 -3.16334,12.73535 -1.49636,4.95 -3.38642,14.175 -4.20014,20.5 -1.77636,13.80759 -2.14471,52.11622 -0.57691,60 0.60157,3.025 2.05818,10.9 3.23692,17.5 1.17875,6.6 2.77221,12.99667 3.54103,14.21482 0.76882,1.21815 1.40062,2.79315 1.40401,3.5 0.003,0.70685 0.58662,2.41018 1.29608,3.78518 0.70945,1.375 2.3539,5.2 3.65432,8.5 1.30042,3.3 2.9001,6.675 3.55483,7.5 0.65474,0.825 2.24033,4.0875 3.52353,7.25 1.28321,3.1625 2.77737,5.75 3.32035,5.75 2.08065,0 4.64473,3.43465 4.64473,6.22171 0,3.23643 4.44902,9.77829 6.65007,9.77829 0.77699,0 1.67811,0.69164 2.0025,1.53699 0.32438,0.84534 1.88526,2.20689 3.46861,3.02568 1.58335,0.81878 2.87882,2.1363 2.87882,2.92783 0,2.92812 9.67488,6.34286 18.25362,6.4426 3.94622,0.0459 6.92584,-0.56137 9.4852,-1.9331 z m 4.42785,-5 c 0.50335,-1.51005 2.11144,-1.66567 2.58333,-0.25 0.22917,0.6875 -0.33333,1.25 -1.25,1.25 -0.91667,0 -1.51667,-0.45 -1.33333,-1 z m -22.16444,-15.11133 c -7.50471,-4.10275 -10.09322,-6.67796 -9.41772,-9.36938 0.38305,-1.52617 -0.36432,-3.14256 -2.51998,-5.45021 -1.68549,-1.80433 -3.06453,-4.10728 -3.06453,-5.11768 0,-2.3802 -3.95663,-9.09624 -4.98459,-8.46092 -1.5559,0.96159 -3.46784,-2.54968 -2.35177,-4.31901 0.57621,-0.91349 0.7082,-2.33827 0.2933,-3.16618 -2.84954,-5.6861 -6.85789,-16.1161 -7.39999,-19.25529 -0.40028,-2.31797 -1.20308,-3.75 -2.10226,-3.75 -0.80008,0 -1.45469,-0.675 -1.45469,-1.5 0,-0.825 0.48575,-1.5 1.07946,-1.5 1.7098,0 -0.0802,-6.31224 -2.21381,-7.80666 -2.22027,-1.55513 -2.37601,-3.06618 -0.47236,-4.5831 1.13253,-0.90245 1.20832,-2.51393 0.40495,-8.61024 -1.19457,-9.06487 -0.3597,-45.13616 1.23825,-53.5 3.34171,-17.49083 7.78083,-28.74652 11.55343,-29.29448 1.23572,-0.17948 3.82171,1.2849 6.62221,3.75 2.72434,2.39806 5.60192,4.04448 7.06888,4.04448 2.99327,0 4.93476,2.03285 3.75877,3.93564 -0.57071,0.92342 0.34238,2.87832 2.8072,6.01015 2.00916,2.55288 4.50673,6.42193 5.55016,8.5979 1.04342,2.17597 2.28452,4.74347 2.758,5.70555 3.76145,7.64314 9.39136,23.70585 11.35555,32.39854 1.30604,5.78 2.83159,11.05972 3.39011,11.73269 0.55853,0.67298 0.77984,2.12475 0.49182,3.22615 -0.28802,1.10141 0.44886,6.70299 1.63752,12.44797 2.40282,11.6132 2.64694,23.39998 0.89981,43.44541 -1.37639,15.79187 -3.80411,23.77286 -8.89748,29.25 -4.873,5.24016 -8.10754,5.46992 -16.03024,1.13867 z m 35.99777,-12.82965 c 0,-0.51754 0.45,-1.2191 1,-1.55902 0.55,-0.33992 1,0.0835 1,0.94098 0,0.85746 -0.45,1.55902 -1,1.55902 -0.55,0 -1,-0.42344 -1,-0.94098 z m 119.38697,32.22068 c 0.39617,-0.39617 2.21474,-0.59155 4.04127,-0.43419 3.67026,0.31621 10.57176,-2.15216 10.57176,-3.78106 0,-0.57069 1.575,-1.69569 3.5,-2.5 2.21274,-0.92455 3.5,-2.14318 3.5,-3.31342 0,-2.51187 1.92285,-4.25103 4.7,-4.25103 1.35322,0 2.3,-0.60298 2.3,-1.46482 0,-0.80565 0.89552,-1.94408 1.99005,-2.52985 1.09452,-0.58578 1.91093,-1.38911 1.81422,-1.78519 -0.0967,-0.39608 0.58278,-2.4626 1.50996,-4.59226 1.9137,-4.39567 2.14466,-6.62788 0.68577,-6.62788 -1.81262,0 -1.04063,-3.17662 0.89501,-3.68279 1.20581,-0.31533 2.30046,-2.00881 3.00983,-4.65638 1.38991,-5.1875 2.12791,-26.52255 0.94278,-27.25501 -0.4807,-0.29708 -0.59185,-4.22243 -0.24701,-8.72299 0.34484,-4.50056 0.63232,-12.59187 0.63884,-17.98071 0.01,-8.23455 -0.27106,-10.00475 -1.76126,-11.09441 -1.27574,-0.93284 -1.59046,-2.02425 -1.12198,-3.89083 0.35812,-1.42687 0.26703,-2.83169 -0.20242,-3.12183 -0.46945,-0.29014 -1.15182,-4.40799 -1.51638,-9.15078 -0.36456,-4.7428 -1.10712,-9.45341 -1.65012,-10.46803 -0.54301,-1.01461 -0.98729,-3.84445 -0.98729,-6.28853 0,-3.4894 -0.48322,-4.77159 -2.25,-5.97021 -1.86391,-1.26451 -2.05561,-1.85151 -1.11715,-3.42081 1.40844,-2.35522 -0.18083,-13.27744 -2.16148,-14.85474 -0.73074,-0.58193 -1.65128,-3.90997 -2.04564,-7.39565 -0.46238,-4.08692 -1.37556,-6.99613 -2.57137,-8.19194 -1.0199,-1.0199 -1.85436,-2.51183 -1.85436,-3.3154 0,-0.80358 -0.94786,-2.34411 -2.10635,-3.42342 -1.1585,-1.0793 -1.81825,-2.42852 -1.46612,-2.99827 1.06775,-1.72767 -1.69913,-5.16584 -3.65712,-4.5444 -1.26184,0.40049 -1.59723,0.1394 -1.18864,-0.92535 0.35419,-0.92302 -1.34129,-3.43437 -4.48882,-6.64885 -4.97757,-5.08343 -5.03443,-5.21116 -3.57548,-8.03246 2.51166,-4.857 1.92437,-9.41663 -1.5942,-12.37732 -3.99007,-3.35742 -8.82112,-3.28149 -15.42275,0.24242 -5.97066,3.18709 -7.71361,6.15805 -12.7258,21.69174 -6.30041,19.52613 -9.65061,31.75787 -12.72975,46.47695 -2.8419,13.58498 -6.20913,53.05054 -6.01512,70.5 0.0693,6.23569 3.00192,24.59893 5.58945,35 1.80149,7.2414 4.37466,12.5 6.11658,12.5 1.02865,0 1.03616,0.39216 0.0382,1.99024 -1.04862,1.67909 -0.85453,2.70852 1.24152,6.58483 1.36645,2.52703 3.23537,5.00268 4.15317,5.50145 0.91779,0.49876 1.94293,2.14809 2.27809,3.66516 0.91725,4.15197 8.97716,12.02612 13.5779,13.26497 2.13996,0.57624 4.1614,1.48547 4.49208,2.02052 0.69706,1.12786 5.80702,1.31568 6.87018,0.25253 z m -2.17333,-18.30921 c -0.94469,-1.5127 -2.16769,-1.96889 -4.80263,-1.79144 -4.33388,0.29188 -5.66652,-1.40026 -4.95586,-6.29278 0.42506,-2.92637 -0.0475,-4.40384 -2.48421,-7.76769 -2.98149,-4.11583 -4.35569,-8.81347 -7.45651,-25.48974 -0.937,-5.03922 -2.09256,-8.33109 -3.21178,-9.14949 -1.44903,-1.05955 -1.55094,-1.68056 -0.59554,-3.62883 0.72927,-1.48713 1.19587,-9.14591 1.27028,-20.85052 0.13088,-20.58713 1.07369,-31.00881 4.63257,-51.20751 2.84311,-16.13631 10.39831,-41.15374 12.55688,-41.57939 1.70535,-0.33629 9.2914,9.11122 13.07786,16.2869 2.48288,4.70528 5.84405,16.86997 6.23563,22.56783 0.0971,1.41231 0.4695,3.04198 0.82765,3.62148 0.35815,0.5795 1.08079,4.59897 1.60586,8.93216 0.52508,4.33319 1.22057,9.00353 1.54554,10.37853 0.32498,1.375 0.9995,5.63363 1.49894,9.46362 0.75553,5.7939 1.34728,7.28356 3.52279,8.86831 2.44623,1.78196 2.50903,2.02149 0.97449,3.71713 -1.52802,1.68844 -1.49709,1.93499 0.45209,3.60393 2.37768,2.03583 2.69346,3.34701 0.80608,3.34701 -1.66552,0 -2.40756,26.45318 -0.77041,27.46499 1.39096,0.85966 1.36255,6.22791 -0.0375,7.09321 -0.60179,0.37193 -0.85366,1.86099 -0.55969,3.30902 0.29396,1.44803 0.14579,3.98278 -0.32927,5.63278 -0.47506,1.65 -1.52475,5.925 -2.33264,9.5 -2.559,11.32381 -5.01543,16.68705 -9.14651,19.97003 -2.097,1.66648 -4.43998,3.02997 -5.20661,3.02997 -0.76663,0 -1.6529,0.675 -1.96948,1.5 -0.82264,2.14377 -3.66081,1.85184 -5.14799,-0.52951 z m 343.65647,4.61952 c 2.05557,-1.4245 4.96195,-2.59001 6.45862,-2.59001 4.17816,0 13.28624,-3.5329 17.44017,-6.76483 2.0521,-1.59658 4.5186,-3.18852 5.4811,-3.53764 0.9625,-0.34912 1.763,-1.21138 1.7789,-1.91615 0.016,-0.70476 0.1987,-4.1741 0.4062,-7.70964 0.2691,-4.5836 -0.058,-7.09229 -1.1388,-8.74228 -0.8339,-1.27271 -1.2647,-2.96946 -0.9573,-3.77055 0.3398,-0.88543 -0.2052,-1.69907 -1.39,-2.07511 -1.1312,-0.35903 -1.9623,-1.53436 -1.9808,-2.80119 -0.091,-6.26099 -9.65653,-11.54461 -36.9682,-20.4203 -11.79484,-3.83306 -11.79157,-5.00221 0.0387,-13.86039 7.99848,-5.98904 11.49978,-7.52688 17.85818,-7.84362 6.70057,-0.3338 9.30956,-1.72682 11.2493,-6.00635 1.99702,-4.40588 0.91238,-7.5682 -3.68629,-10.74768 -3.32806,-2.30099 -5.02364,-2.74313 -10.62697,-2.77105 -8.7616,-0.0437 -12.24683,1.50325 -29.47715,13.08334 -2.14129,1.43911 -6.44856,5.37661 -9.57173,8.75 -3.12317,3.37339 -6.15223,6.13344 -6.73126,6.13344 -0.57902,0 -1.04644,-1.9125 -1.0387,-4.25 0.0101,-3.04984 1.14272,-6.32057 4.01087,-11.5823 2.19824,-4.03277 4.66691,-8.00241 5.48593,-8.82143 1.77664,-1.77663 1.8454,-3.02582 0.39552,-7.18495 -0.85217,-2.44455 -1.9956,-3.40737 -5.17933,-4.36124 -3.19625,-0.95762 -4.17367,-0.96025 -4.48972,-0.0121 -0.49138,1.47415 -4.23734,1.63048 -4.23734,0.17684 0,-1.94771 -3.96104,1.01781 -6.44863,4.8279 -4.91146,7.5226 -11.49842,30.82112 -15.02315,53.13791 -0.81922,5.18685 -1.90899,9.85014 -2.42172,10.36287 -1.23965,1.23965 -3.1065,0.003 -3.1065,-2.05733 0,-3.50826 -9.18537,-38.6792 -11.06259,-42.35887 -1.22092,-2.39318 -3.99215,-5.20845 -7.21026,-7.32483 -7.10074,-4.66976 -10.00376,-5.27586 -12.64049,-2.63913 -1.14767,1.14766 -2.42656,2.08666 -2.84198,2.08666 -0.41542,0 -1.2789,1.67283 -1.91884,3.7174 -1.34264,4.28966 -0.76193,5.85338 4.2597,11.47043 1.8133,2.02831 3.82691,5.62831 4.47469,8 0.64778,2.37169 1.77552,6.33717 2.50609,8.81217 0.73058,2.475 2.30756,9.225 3.5044,15 1.94148,9.36803 6.8033,23.52184 9.15922,26.66446 0.48012,0.64045 2.4565,4.37885 4.39195,8.30754 4.20558,8.53676 7.90727,11.41407 13.59557,10.56782 7.10512,-1.05703 10.24062,-3.78012 11.13111,-9.66704 0.11422,-0.75503 0.63899,-2.04778 1.16618,-2.87278 2.10747,-3.29803 4.52539,-15.17969 5.59624,-27.5 1.60238,-18.43567 2.99365,-21.13551 6.9227,-13.43394 1.69827,3.32887 3.19771,4.56173 8.27033,6.79995 3.40778,1.50364 8.22097,3.33221 10.69597,4.06349 2.475,0.73128 6.3,1.90569 8.5,2.6098 2.2,0.70412 6.7,2.02835 10,2.94275 9.41997,2.61019 16.45691,6.27441 17.54481,9.13582 1.52475,4.01038 1.13954,5.29959 -1.79481,6.00688 -1.5125,0.36457 -4.64136,1.53777 -6.95303,2.6071 -2.31166,1.06934 -4.60761,1.6942 -5.10209,1.38859 -0.49449,-0.30561 -2.63578,0.32977 -4.75842,1.41195 -2.12264,1.08219 -5.75467,1.96761 -8.07118,1.96761 -6.07148,0 -10.58763,3.91964 -10.24638,8.893 0.28296,4.12393 2.24277,8.65552 4.11006,9.50355 0.69907,0.31749 4.7884,0.39865 9.0874,0.18036 6.38315,-0.32411 8.50165,-0.87179 11.55375,-2.9869 z m -47.37011,-64.59001 c -0.81551,-1.31952 0.38021,-3.19207 1.5691,-2.45729 1.21461,0.75067 1.20672,3.45729 -0.0101,3.45729 -0.51754,0 -1.2191,-0.45 -1.55902,-1 z m -159.76426,65.25 c 3.77519,-1.55202 4.25719,-2.11768 4.26051,-5 0.002,-1.7875 0.43264,-3.25 0.95684,-3.25 1.07676,0 0.75265,-13.67114 -0.44516,-18.77714 -0.58595,-2.49774 -0.35175,-3.73796 0.98473,-5.21475 2.60732,-2.88106 4.47409,-12.32365 4.49172,-22.72029 0.0154,-9.07019 -0.059,-9.35649 -4.82422,-18.57578 l -4.83984,-9.36361 0.35407,-8.92422 c 0.19473,-4.90831 -0.0881,-12.74921 -0.62845,-17.42421 -0.54038,-4.675 -1.2806,-14.8 -1.64495,-22.5 -0.36434,-7.7 -0.79167,-15.575 -0.94962,-17.5 -0.15794,-1.925 -0.5658,-11.3166 -0.90634,-20.87023 -0.85009,-23.84908 -4.70484,-39.91604 -11.19767,-46.67301 -4.20305,-4.37403 -9.46897,-8.04638 -12.66929,-8.83532 -4.51547,-1.11314 -9.26337,2.3837 -10.06791,7.41503 -0.76653,4.79358 0.21428,6.99898 5.60367,12.60026 7.1308,7.41113 8.11609,13.73158 10.81301,69.36327 0.54659,11.275 1.38208,25.44944 1.85664,31.49875 0.47456,6.04932 0.64528,11.5657 0.37938,12.25864 -0.26591,0.69293 -1.67133,1.51059 -3.12316,1.81703 -1.45184,0.30643 -3.83413,1.20255 -5.29399,1.99136 -1.45986,0.78882 -3.25986,1.43615 -4,1.4385 -0.74014,0.002 -3.37071,1.35043 -5.84571,2.99572 -2.475,1.64529 -5.49133,2.99336 -6.70295,2.99572 -2.82763,0.005 -6.72468,1.70099 -11.97723,5.21093 -2.29909,1.53634 -4.62707,2.79335 -5.17327,2.79335 -2.19166,0 -7.49065,5.63694 -9.32768,9.92256 -2.96392,6.91454 -2.80935,23.8661 0.28449,31.20084 1.24734,2.95713 3.03207,6.38331 3.96607,7.61373 2.43568,3.20871 12.51132,10.54898 18.88379,13.75714 4.74511,2.38889 6.30334,2.68416 12,2.27389 3.60073,-0.25932 9.35493,-1.49695 12.78711,-2.75029 7.29359,-2.66342 8.61584,-2.12259 10.32452,4.22296 2.61589,9.71468 3.62125,10.31847 11.67089,7.00917 z m -44.13719,-32.00504 c -2.69579,-2.05973 -5.73329,-5.31294 -6.75,-7.22936 -1.99363,-3.75786 -2.41715,-10.38987 -0.91568,-14.33903 1.04049,-2.73669 11.05595,-8.67657 14.6299,-8.67657 2.84563,0 6.84638,-1.77545 12.27388,-5.44691 5.98408,-4.04796 7.47147,-2.96242 8.28914,6.04968 0.34418,3.79348 0.68168,11.25409 0.75,16.57914 0.12181,9.49463 0.071,9.7187 -2.62579,11.58431 -4.51112,3.12073 -10.98625,5.2341 -16.02024,5.22874 -3.92094,-0.004 -5.56794,-0.64545 -9.63121,-3.75 z m 116.90145,31.53705 c 11.77708,-2.5597 18.71359,-5.64712 23.19474,-10.32391 5.03031,-5.24992 6.84949,-11.93162 3.91223,-14.36932 -0.88383,-0.73352 -1.60697,-0.96872 -1.60697,-0.52266 0,0.44605 -0.91753,-0.17385 -2.03896,-1.37756 -1.12142,-1.20371 -3.09657,-2.18856 -4.38921,-2.18856 -2.38581,0 -8.11795,3.90562 -5.82183,3.96673 0.6875,0.0183 1.25,0.52077 1.25,1.1166 0,0.59584 -0.5625,0.8833 -1.25,0.63881 -0.6875,-0.24448 -2.825,0.32739 -4.75,1.27084 -5.7209,2.80382 -16.20726,5.1979 -20.5,4.68022 -13.0676,-1.57586 -13.16014,-1.61338 -14.57832,-5.91051 -1.20144,-3.64041 -1.15035,-4.12231 0.57047,-5.38061 1.03956,-0.76014 2.8166,-1.38376 3.94898,-1.38582 1.13238,-0.002 3.63387,-0.97612 5.55887,-2.16459 1.925,-1.18847 4.5612,-2.21628 5.85822,-2.28402 1.29702,-0.0677 2.97777,-1.00618 3.73499,-2.08541 3.69611,-5.26786 6.21478,-8.29823 9.94236,-11.96224 7.10927,-6.98803 7.79976,-8.75033 8.27728,-21.12559 l 0.4293,-11.12559 -4.37108,-4.51645 c -7.09808,-7.33417 -12.56884,-10.73237 -17.27799,-10.73237 -3.79487,0 -16.92749,4.49696 -24.09308,8.25012 -10.84321,5.67941 -15.33075,21.06899 -14.90337,51.10969 0.16914,11.88937 0.68018,14.75574 3.5016,19.64019 0.47655,0.825 1.76209,3.36079 2.85675,5.63508 2.2256,4.62394 6.40556,7.52125 14.34603,9.94386 2.85945,0.8724 6.09899,1.9491 7.19899,2.39267 2.41293,0.97299 14.09464,0.31125 21,-1.1896 z m -29.03298,-49.83537 c -1.29706,-2.09869 0.72623,-12.60541 3.35643,-17.42956 2.28474,-4.19053 3.40848,-5.16315 7.67655,-6.64427 6.25858,-2.17186 8.84416,-0.9539 9.3039,4.38272 0.26233,3.04503 -0.35329,4.21068 -4.5,8.52069 -2.64214,2.74619 -6.20282,6.61998 -7.9126,8.60843 -3.03456,3.52912 -6.61177,4.68567 -7.92428,2.56199 z m -238.37151,46.95565 c 2.39974,-2.4549 2.90449,-3.81557 2.90449,-7.82978 0,-3.51526 -0.43892,-5.02696 -1.58753,-5.46772 -1.24919,-0.47936 -1.4449,-1.45338 -0.9183,-4.57029 0.36807,-2.17861 0.31738,-4.5304 -0.11265,-5.2262 -0.43003,-0.6958 -0.84716,-4.09929 -0.92697,-7.56332 -0.11251,-4.88348 -0.56448,-6.60488 -2.01208,-7.66339 -1.42169,-1.03956 -1.60163,-1.68911 -0.75445,-2.72338 0.81391,-0.99365 0.82106,-4.79767 0.0266,-14.17237 -0.90364,-10.66346 -1.39041,-12.97713 -2.90027,-13.78518 -2.24959,-1.20396 -2.38727,-3.90066 -0.19913,-3.90066 1.38261,0 1.51223,-0.82808 0.90007,-5.75 -0.39333,-3.1625 -0.99729,-6.2 -1.34212,-6.75 -0.61368,-0.97879 -0.8118,-9.38597 -1.04404,-44.30261 -0.0688,-10.34397 -0.55334,-18.12151 -1.2048,-19.33879 -0.92106,-1.72101 -1.70545,-42.77762 -0.88569,-46.3586 0.46473,-2.03008 -1.31815,-7.44096 -2.90342,-8.81162 -2.26308,-1.95672 -7.6471,-2.82446 -10.58775,-1.70643 -5.09313,1.93641 -5.88719,5.59112 -6.35727,29.25976 -0.29033,14.61859 -0.05,23.25813 0.73367,26.37023 0.64101,2.54568 1.37916,11.43691 1.64033,19.75828 0.79252,25.25055 2.62482,52.10951 3.57951,52.47058 0.4956,0.18744 0.65095,2.43744 0.34522,5 -0.53986,4.52507 3.46551,43.10182 5.41562,52.1592 0.53288,2.475 1.6395,8.0143 2.45915,12.30956 1.37823,7.22241 2.56016,9.97493 5.1363,11.96163 1.88155,1.45104 7.68885,-0.39542 10.59551,-3.3689 z"
         id="path3064"
         inkscape:connector-curvature="0"
         sodipodi:nodetypes="csssscsssssssssssssssssssssssscsssssssssssssssssssssssssssssssssssssssscccsssssssssssssscsssssscssssssssssssssssssssssscsssssssssssscsscsssssssssssssssssssssssssssssssssscssssssscsssscsssssscsssssssssscssssssssscssssscccsssssssssscssssssssssssssssccssssccccscsssssssssssssssssssssssssssssssscssssssssssssssssscssccscssssscssssssssssscsscscsssssssssssssssssscssssssssscsssscscssscsssssssssssssssssssssssssssssssssssssssssss" />
    </g>
  </g>
</svg>
